{"scene":0,"asset":{"generator":"ImageToStl.com","version":"2.0"},"scenes":[{"name":"Scene","nodes":[0]}],"nodes":[{"name":"Node0","children":[1]},{"name":"Node1","mesh":0}],"materials":[{"name":"x1","pbrMetallicRoughness":{"baseColorFactor":[0.85,0.85,0.85,1.0],"metallicFactor":0.05,"roughnessFactor":0.5},"doubleSided":true}],"meshes":[{"name":"Mesh0","primitives":[{"indices":2,"material":0,"attributes":{"POSITION":0,"NORMAL":1}}]}],"accessors":[{"bufferView":0,"componentType":5126,"count":49655,"type":"VEC3","min":[-13121.163,-35.738667,-5.905512],"max":[461.2663,652.9483,201.60905]},{"bufferView":1,"componentType":5126,"count":49655,"type":"VEC3"},{"bufferView":2,"componentType":5123,"count":103293,"type":"SCALAR"}],"bufferViews":[{"target":34962,"buffer":0,"byteLength":595860,"byteOffset":0},{"target":34962,"buffer":0,"byteLength":595860,"byteOffset":595860},{"target":34963,"buffer":0,"byteLength":206586,"byteOffset":1191720}],"buffers":[{"byteLength":1398308,"uri":"data:application/octet-stream;base64,"}]}